<svg xmlns="http://www.w3.org/2000/svg" viewBox="0 0 64 64">
  <rect width="64" height="64" fill="#1B2A5E"/>
  <g transform="translate(10,14)" fill="none" stroke="#C9A96E" stroke-width="1.2">
    <rect x="1" y="33" width="42" height="3" fill="#C9A96E" stroke="none"/>
    <rect x="5" y="29" width="34" height="3" fill="#C9A96E" stroke="none"/>
    <path d="M7 29 Q3 22 7 19 Q11 16 14 19 Q17 22 14 26 Q12 28 9 26"/>
    <path d="M37 29 Q41 22 37 19 Q33 16 30 19 Q27 22 30 26 Q32 28 35 26"/>
    <rect x="11" y="18" width="22" height="2" fill="#C9A96E" stroke="none"/>
    <rect x="13" y="4" width="18" height="14" fill="none"/>
    <line x1="17" y1="4" x2="17" y2="18" stroke-width="0.6" opacity="0.6"/>
    <line x1="22" y1="4" x2="22" y2="18" stroke-width="0.6" opacity="0.6"/>
    <line x1="27" y1="4" x2="27" y2="18" stroke-width="0.6" opacity="0.6"/>
    <rect x="10" y="2" width="24" height="2.5" fill="#C9A96E" stroke="none"/>
    <rect x="7" y="-1" width="30" height="2.5" fill="#C9A96E" stroke="none"/>
  </g>
</svg>
